<svg width="40" height="41" viewBox="0 0 40 41" fill="none" xmlns="http://www.w3.org/2000/svg">
<rect y="0.0166016" width="40" height="40.1354" rx="11.1782" fill="#3692FF"/>
<path d="M19.3139 11.1912C19.8132 12.9167 18.493 14.818 16.9797 15.2589C15.4663 15.6998 13.3989 14.7854 12.8996 13.0599C12.4003 11.3344 13.4485 8.94363 14.9618 8.50276C16.9797 7.91488 18.8146 9.46572 19.3139 11.1912Z" fill="#222327"/>
<path d="M20.1461 11.1912C19.6468 12.9167 20.967 14.818 22.4803 15.2589C23.9936 15.6998 26.0611 14.7854 26.5604 13.0599C27.0597 11.3344 26.0115 8.94363 24.4982 8.50276C22.4803 7.91488 20.6454 9.46572 20.1461 11.1912Z" fill="#222327"/>
<path d="M29.5172 23.7964C29.5172 28.1852 25.2138 29.8166 19.3437 29.8166C13.4736 29.8166 9.26758 28.1852 9.26758 23.7964C9.26758 18.6912 13.4736 14.1641 19.3437 14.1641C25.2138 14.1641 29.5172 18.306 29.5172 23.7964Z" fill="#F3D6DD"/>
<path d="M17.4003 22.9299C17.4003 24.3673 16.4777 25.9441 15.1884 25.9441C13.8991 25.9441 11.8164 24.7729 11.8164 22.6258C11.8164 20.6087 14.0664 19.8914 16.3913 20.2597C17.8163 20.4855 17.4003 21.4925 17.4003 22.9299Z" fill="#222327"/>
<path d="M16.3221 22.7849C16.3221 23.0005 16.2573 23.1753 15.933 23.1753C15.6088 23.1753 15.5439 23.0005 15.5439 22.7849C15.5439 22.5693 15.6736 22.3945 15.933 22.3945C16.1924 22.3945 16.3221 22.5693 16.3221 22.7849Z" fill="white"/>
<path d="M21.3223 22.9299C21.3223 24.3673 22.2449 25.9441 23.5342 25.9441C24.8235 25.9441 26.9062 24.7729 26.9062 22.6258C26.9062 20.6087 24.6563 19.8914 22.3313 20.2597C20.9064 20.4855 21.3223 21.4925 21.3223 22.9299Z" fill="#222327"/>
<path d="M22.4015 22.7849C22.4015 23.0005 22.4664 23.1753 22.7906 23.1753C23.1148 23.1753 23.1797 23.0005 23.1797 22.7849C23.1797 22.5693 23.05 22.3945 22.7906 22.3945C22.5312 22.3945 22.4015 22.5693 22.4015 22.7849Z" fill="white"/>
<path d="M17.8754 25.0096C17.7969 24.895 17.6404 24.8657 17.5258 24.9442C17.4112 25.0227 17.382 25.1793 17.4605 25.2939L17.8754 25.0096ZM19.3179 24.7002L19.5559 24.6187C19.521 24.517 19.4254 24.4487 19.3179 24.4487C19.2104 24.4487 19.1148 24.517 19.08 24.6187L19.3179 24.7002ZM21.1754 25.2939C21.2539 25.1793 21.2246 25.0227 21.1101 24.9442C20.9955 24.8657 20.8389 24.895 20.7604 25.0096L21.1754 25.2939ZM17.4605 25.2939C17.53 25.3953 17.6562 25.5312 17.8254 25.6435C17.9962 25.7568 18.2244 25.8547 18.493 25.8547V25.3517C18.349 25.3517 18.2163 25.2992 18.1035 25.2243C17.9891 25.1485 17.9091 25.0586 17.8754 25.0096L17.4605 25.2939ZM18.493 25.8547C18.8235 25.8547 19.0693 25.619 19.2223 25.416C19.3838 25.2016 19.498 24.9506 19.5559 24.7817L19.08 24.6187C19.0347 24.7508 18.9427 24.9513 18.8206 25.1132C18.69 25.2865 18.5749 25.3517 18.493 25.3517V25.8547ZM19.08 24.7817C19.1379 24.9506 19.252 25.2016 19.4136 25.416C19.5666 25.619 19.8124 25.8547 20.1429 25.8547V25.3517C20.061 25.3517 19.9459 25.2865 19.8153 25.1132C19.6932 24.9513 19.6011 24.7508 19.5559 24.6187L19.08 24.7817ZM20.1429 25.8547C20.4115 25.8547 20.6397 25.7568 20.8105 25.6435C20.9797 25.5312 21.1059 25.3953 21.1754 25.2939L20.7604 25.0096C20.7268 25.0586 20.6467 25.1485 20.5324 25.2243C20.4196 25.2992 20.2868 25.3517 20.1429 25.3517V25.8547Z" fill="#222327"/>
<path d="M20.6913 24.4678C20.6913 24.677 19.7493 24.9433 19.4322 25.027C19.3645 25.0449 19.2946 25.0449 19.2268 25.027C18.9098 24.9433 17.9678 24.677 17.9678 24.4678C17.9678 24.2162 18.7207 23.9473 19.3295 23.9473C19.9384 23.9473 20.6913 24.2162 20.6913 24.4678Z" fill="#222327"/>
<path d="M19.1655 17.7761C15.3813 17.7761 13.9906 16.4466 13.7656 15.669L15.5656 13.7124L19.4655 13.0352L24.8654 15.669C24.5404 16.2961 22.9539 17.7761 19.1655 17.7761Z" fill="#222327"/>
<path fill-rule="evenodd" clip-rule="evenodd" d="M19.6898 31.9989C27.5098 31.9989 33.2427 29.795 33.2427 23.8657C33.2427 16.4482 27.5098 10.8525 19.6898 10.8525C11.8698 10.8525 6.2666 16.9687 6.2666 23.8657C6.2666 29.795 11.8698 31.9989 19.6898 31.9989ZM19.3823 29.7218C25.1345 29.7218 29.3515 28.1079 29.3515 23.7658C29.3515 18.3339 25.1345 14.2362 19.3823 14.2362C13.6301 14.2362 9.50854 18.7151 9.50854 23.7658C9.50854 28.1079 13.6301 29.7218 19.3823 29.7218Z" fill="white"/>
</svg>
